:SAMPLES-PER-SECOND 30
:FULLY-SPECIFIED
:DEGREES
93
root  17.5335 38.8298 -9.56862 -87.0164 -86.4348 87.5958
RightUpLeg  0.131818 2.32502 -8.61218
RightLeg  59.8425 -3.22977 -6.47377
RightFoot  8.79166 -1.00722 6.01036
RightToes  -5.8209e-011 0 -3.6325e-017
Spine  7.48885 3.7056 4.01321
Spine1  6.14847 6.1844 -9.075
HEad  -15.9815 -6.31344 2.60705
LeftShoulder1  7.61589 -11.5444 -44.0589
LeftArm  -4.57619 41.2627 -26.7816
LeftForeArm  179.411 -55.2945 -166.288
LeftHand  -0.244104 0.0205437 5.32207
RightShoulder  6.41952 10.3656 40.1403
RightArm  16.6541 -13.1458 31.7347
RightForeArm  161.808 62.3374 160.336
RightHand  -0.154716 -9.12144 3.13171
LeftUpLeg  -19.1022 7.77946 -12.1609
LeftLeg  23.8243 5.35496 3.05914
LeftFoot  -9.8821 -0.00502103 6.28377
LeftToes  -6.09394e-011 -3.18376e-011 -2.71738e-012
94
root  15.4033 38.0335 -9.53407 -91.238 -84.8248 90.1958
RightUpLeg  -5.22026 4.10555 -12.0291
RightLeg  70.4084 -2.59131 -8.94386
RightFoot  7.3372 -0.512202 3.38155
RightToes  -5.8209e-011 0 -3.6325e-017
Spine  10.3549 2.74092 0.343413
Spine1  5.84228 4.64061 -7.27516
HEad  -19.3447 -5.02966 3.00937
LeftShoulder1  7.69724 -11.1478 -45.7969
LeftArm  -4.33792 33.3166 -25.4414
LeftForeArm  177.377 -58.441 -164.405
LeftHand  -0.244104 0.0205437 5.32207
RightShoulder  6.611 10.2905 41.6794
RightArm  13.4122 -16.439 33.1899
RightForeArm  159.313 68.2483 154.052
RightHand  -0.127225 -9.1789 2.20598
LeftUpLeg  -17.8883 7.24308 -13.6937
LeftLeg  31.8945 6.45358 4.6492
LeftFoot  -13.6614 0.250052 8.79078
LeftToes  -6.09394e-011 -3.18376e-011 -2.71738e-012
95
root  13.2493 37.616 -9.55237 -95.1747 -83.5932 93.4422
RightUpLeg  -12.079 4.93177 -14.5015
RightLeg  77.2473 -1.98979 -11.6573
RightFoot  4.39347 -0.00681131 0.263118
RightToes  -5.8209e-011 0 -3.6325e-017
Spine  11.6774 2.00059 -3.77156
Spine1  6.26167 2.90982 -4.62597
HEad  -21.9845 -3.16796 3.33093
LeftShoulder1  7.97852 -11.1069 -47.6482
LeftArm  -3.58103 24.5903 -23.9798
LeftForeArm  177.887 -62.1364 -162.094
LeftHand  -0.244104 0.0205437 5.32207
RightShoulder  6.93306 10.214 44.1095
RightArm  7.43743 -21.2376 33.8745
RightForeArm  151.68 74.6315 142.053
RightHand  -0.0424059 -9.64927 -0.224635
LeftUpLeg  -15.1807 8.31834 -14.4421
LeftLeg  35.8472 6.22166 5.17735
LeftFoot  -19.3553 0.643344 7.59131
LeftToes  -6.09394e-011 -3.18376e-011 -2.71738e-012
96
root  10.9139 37.7699 -9.50333 -97.2935 -84.2088 96.0502
RightUpLeg  -19.0169 4.29512 -14.1496
RightLeg  78.3506 -2.14252 -13.813
RightFoot  1.47824 0.152975 -1.23352
RightToes  -5.8209e-011 0 -3.6325e-017
Spine  10.8345 0.751241 -6.22033
Spine1  6.77659 0.537143 -1.04194
HEad  -22.5555 -0.152663 2.53868
LeftShoulder1  8.14756 -11.2512 -48.1931
LeftArm  -2.62999 18.92 -24.6568
LeftForeArm  -179.715 -63.4022 -161.363
LeftHand  -0.244104 0.0205437 5.32207
RightShoulder  6.83303 9.85233 44.6618
RightArm  2.77696 -28.366 33.0968
RightForeArm  145.295 76.9016 133.916
RightHand  0.00581547 -10.7234 -1.35556
LeftUpLeg  -10.5287 9.22507 -13.1508
LeftLeg  33.9392 5.98625 4.68373
LeftFoot  -22.8263 0.751049 6.06271
LeftToes  -6.09394e-011 -3.18376e-011 -2.71738e-012
97
root  8.41446 38.4399 -9.34231 -112.272 -86.9275 112.005
RightUpLeg  -24.0603 2.38544 -10.4732
RightLeg  73.6333 -3.65569 -14.8648
RightFoot  -0.658683 0.0547539 -0.617726
RightToes  -5.8209e-011 0 -3.6325e-017
Spine  9.53016 -1.3052 -5.92905
Spine1  6.21138 -2.50888 2.92598
HEad  -21.6075 4.00057 0.179126
LeftShoulder1  7.97125 -11.2076 -47.2725
LeftArm  -1.05888 17.2007 -27.8252
LeftForeArm  -177.931 -61.6283 -162.808
LeftHand  -0.244104 0.0205437 5.32207
RightShoulder  6.03757 9.06613 41.7491
RightArm  4.3079 -36.8163 30.051
RightForeArm  146.347 74.3693 141.426
RightHand  0.0498316 -10.623 -2.35607
LeftUpLeg  -4.28557 9.39753 -9.71273
LeftLeg  27.8256 5.75765 3.68842
LeftFoot  -21.9999 0.637015 5.43578
LeftToes  -6.09394e-011 -3.18376e-011 -2.71738e-012
